<?xml version="1.0" encoding="UTF-8" standalone="no"?>
<svg
   width="512"
   height="512"
   viewBox="0 0 135.46666 135.46667"
   version="1.1"
   id="svg5"
   xmlns="http://www.w3.org/2000/svg"
   xmlns:svg="http://www.w3.org/2000/svg">
  <defs
     id="defs2" />
  <g
     id="layer1">
    <circle
       style="fill:#1db954;fill-opacity:1;stroke-width:0.264583"
       id="path846"
       cx="67.73333"
       cy="67.73333"
       r="67.73333" />
    <g
       id="g1103"
       transform="matrix(0.26458333,0,0,0.26458333,27.516666,27.516666)">
      <path
         d="M 204.8,0 C 91.9,0 0,91.9 0,204.8 0,317.7 91.9,409.6 204.8,409.6 317.7,409.6 409.6,317.7 409.6,204.8 409.6,91.9 317.7,0 204.8,0 Z m 94.17,295.53 c -3.7,6.06 -11.65,7.99 -17.71,4.29 -48.52,-29.64 -109.62,-36.35 -181.5,-19.93 -6.93,1.58 -13.83,-2.75 -15.41,-9.68 -1.58,-6.93 2.75,-13.83 9.68,-15.41 78.77,-18 146.18,-10.25 200.65,22.99 6.06,3.7 7.99,11.65 4.29,17.71 z m 25.13,-55.98 c -4.65,7.56 -14.53,9.92 -22.09,5.28 -55.56,-34.15 -140.23,-44.03 -205.98,-24.08 -8.49,2.58 -17.45,-2.22 -20.02,-10.7 -2.57,-8.48 2.22,-17.43 10.7,-20.02 75.08,-22.79 168.57,-11.74 231.12,27.44 7.56,4.65 9.92,14.53 5.28,22.09 z m 2.16,-58.28 c -66.56,-39.53 -176.33,-43.16 -239.95,-23.89 -10.17,3.09 -20.92,-2.57 -24.01,-12.73 -3.09,-10.17 2.56,-20.92 12.73,-24.01 73.22,-22.23 194.95,-17.95 271.95,27.64 9.26,5.5 12.31,17.48 6.81,26.74 -5.5,9.26 -17.5,12.3 -26.74,6.8 z"
         fill="#ffffff"
         id="path1101" />
    </g>
  </g>
</svg>
